<svg width="20" height="21" viewBox="0 0 20 21" fill="none" xmlns="http://www.w3.org/2000/svg">
<path d="M11.5671 20.8721C11.5671 18.5367 11.5671 16.2013 11.5671 13.8551C12.338 13.8551 13.109 13.8551 13.8929 13.8551C14.042 12.8831 14.1888 11.9198 14.3378 10.9413C13.407 10.9413 12.4892 10.9413 11.5627 10.9413C11.5627 10.8913 11.5627 10.8565 11.5627 10.8217C11.5627 10.2455 11.5584 9.66711 11.5649 9.09088C11.5671 8.9017 11.5843 8.70817 11.6319 8.52552C11.783 7.93842 12.1847 7.61877 12.7656 7.51657C12.9233 7.4883 13.0853 7.48178 13.2472 7.47961C13.6079 7.47526 13.9707 7.47743 14.3313 7.47743C14.3702 7.47743 14.4069 7.47743 14.4523 7.47743C14.4523 6.64679 14.4523 5.8292 14.4523 4.99855C14.2817 4.97464 14.1089 4.94637 13.9361 4.92462C13.3099 4.84852 12.6836 4.78981 12.0508 4.8072C11.3792 4.8246 10.7356 4.96376 10.1461 5.3008C9.37077 5.74439 8.88918 6.4163 8.63435 7.26651C8.50261 7.70792 8.44214 8.16021 8.43998 8.6212C8.43567 9.34529 8.43783 10.0694 8.43783 10.7956C8.43783 10.8391 8.43783 10.8805 8.43783 10.937C7.59127 10.937 6.75119 10.937 5.90463 10.937C5.90463 11.9111 5.90463 12.8723 5.90463 13.8442C6.74255 13.8442 7.58047 13.8442 8.42919 13.8442C8.42919 16.1926 8.42919 18.5302 8.42919 20.8677C4.61104 20.385 0.501346 16.9798 0.0413546 11.8459C-0.479106 6.04229 3.97828 1.03018 9.73142 0.875789C15.4435 0.721403 20.1082 5.3943 19.9981 11.1283C19.8923 16.5275 15.7307 20.3176 11.5671 20.8721Z" fill="#FFF0DF"/>
</svg>
