<svg width="75" height="15" viewBox="0 0 75 15" fill="none" xmlns="http://www.w3.org/2000/svg">
<path d="M51.0624 7.16716H52.243V5.98662V5.98516V1.48718H53.1217V13.6894H52.243V9.22794V8.0474H51.0624H46.7299V7.16716H51.0624Z" stroke="#FFF0DF" stroke-width="2.36107"/>
<path d="M40.2162 13.6904V1.48815H41.095V13.6904H40.2162Z" stroke="#FFF0DF" stroke-width="2.36107"/>
<path d="M12.0267 7.16765H13.2072V5.98712V1.48913H14.086V13.6913H13.2072V9.2299V8.04936H12.0267H3.23986H2.05932V9.2299V13.6913H1.18054V1.48913H2.05932V5.98712V7.16765H3.23986H12.0267Z" stroke="#FFF0DF" stroke-width="2.36107"/>
<path d="M72.0244 9.5638L72.0244 9.56381L72.0272 9.55719C72.2998 8.91271 72.4348 8.23092 72.4348 7.51821V1.41784H73.3107V7.51821C73.3107 8.3691 73.1506 9.16081 72.8357 9.9002C72.5164 10.6422 72.0799 11.2878 71.5248 11.843C70.9766 12.3912 70.3361 12.8252 69.5943 13.1447L69.593 13.1452C68.8649 13.4599 68.0836 13.6186 67.241 13.6186H64.9953C64.1523 13.6186 63.3711 13.4588 62.644 13.1441L62.5616 13.1084C61.883 12.799 61.2866 12.395 60.7672 11.8968L60.7087 11.8372C60.1591 11.2778 59.7234 10.6305 59.4034 9.88667C59.0887 9.14907 58.93 8.36191 58.93 7.51821V1.41784H59.8074V7.51821C59.8074 8.22923 59.9423 8.91251 60.215 9.55719L60.215 9.55721L60.2183 9.56497C60.4854 10.1838 60.85 10.7343 61.3142 11.2099L61.3233 11.2192L61.3326 11.2283C61.8057 11.692 62.3499 12.0568 62.9616 12.3248L62.9672 12.3272C63.6064 12.6034 64.2871 12.7383 64.9983 12.7383H67.2439C67.9553 12.7383 68.6355 12.6033 69.2753 12.3277L69.2761 12.3274C69.8989 12.0586 70.4487 11.6892 70.9165 11.2215L70.9215 11.2164L70.9265 11.2114C71.3896 10.737 71.7564 10.1865 72.0244 9.5638Z" stroke="#FFF0DF" stroke-width="2.36107"/>
<path d="M23.6775 1.90784L23.6775 1.90788L23.6861 1.90419C24.4326 1.5813 25.2288 1.41784 26.0801 1.41784H26.0815H34.3486V13.6888H33.4625V11.0651V9.88456H32.282H26.4348V8.95022H32.282H33.4625V7.76969V3.49471V2.31417H32.282H26.0815C25.4476 2.31417 24.8376 2.42224 24.2582 2.64313H24.245L24.0229 2.73793C23.391 3.00771 22.8305 3.3802 22.3505 3.86027C21.8744 4.33635 21.4975 4.8937 21.2202 5.52351L21.2202 5.52348L21.2153 5.53492C20.9421 6.17369 20.8058 6.85723 20.8058 7.57816V13.6902H19.8949V7.57816C19.8949 6.71565 20.0578 5.9214 20.3795 5.18529L20.3797 5.18473C20.7082 4.43195 21.1517 3.77966 21.7095 3.22173C22.2654 2.66717 22.918 2.22926 23.6775 1.90784Z" stroke="#FFF0DF" stroke-width="2.36107"/>
</svg>
