<svg width="16" height="16" viewBox="0 0 16 16" fill="none" xmlns="http://www.w3.org/2000/svg">
<g clip-path="url(#clip0_142_903)">
<path d="M11.3359 1.33398H4.66927C2.82832 1.33398 1.33594 2.82637 1.33594 4.66732V11.334C1.33594 13.1749 2.82832 14.6673 4.66927 14.6673H11.3359C13.1769 14.6673 14.6693 13.1749 14.6693 11.334V4.66732C14.6693 2.82637 13.1769 1.33398 11.3359 1.33398Z" stroke="#365223" stroke-width="1.33333" stroke-linecap="round" stroke-linejoin="round"/>
<path d="M10.6678 7.5802C10.75 8.13503 10.6553 8.70168 10.3969 9.19954C10.1386 9.69741 9.72987 10.1011 9.22886 10.3533C8.72784 10.6055 8.16007 10.6933 7.6063 10.6042C7.05252 10.515 6.54095 10.2536 6.14433 9.85698C5.74772 9.46036 5.48626 8.94878 5.39715 8.39501C5.30804 7.84124 5.39582 7.27346 5.64799 6.77245C5.90017 6.27144 6.3039 5.86269 6.80176 5.60436C7.29963 5.34603 7.86628 5.25126 8.42111 5.33353C8.98706 5.41746 9.51101 5.68118 9.91557 6.08574C10.3201 6.4903 10.5839 7.01425 10.6678 7.5802Z" stroke="#365223" stroke-width="1.33333" stroke-linecap="round" stroke-linejoin="round"/>
<path d="M11.668 4.33398H11.6746" stroke="#365223" stroke-width="1.33333" stroke-linecap="round" stroke-linejoin="round"/>
</g>
<defs>
<clipPath id="clip0_142_903">
<rect width="16" height="16" fill="white"/>
</clipPath>
</defs>
</svg>
