<svg width="20" height="21" viewBox="0 0 20 21" fill="none" xmlns="http://www.w3.org/2000/svg">
<path d="M13.0769 10.8721C13.0769 11.4806 12.8965 12.0755 12.5584 12.5815C12.2203 13.0875 11.7397 13.4819 11.1775 13.7148C10.6153 13.9477 9.99659 14.0086 9.39972 13.8899C8.80286 13.7711 8.2546 13.4781 7.82429 13.0478C7.39397 12.6175 7.10092 12.0692 6.9822 11.4723C6.86348 10.8755 6.92441 10.2568 7.15729 9.69458C7.39018 9.13235 7.78456 8.6518 8.29055 8.3137C8.79655 7.97561 9.39144 7.79515 10 7.79515C10.8161 7.79515 11.5987 8.11932 12.1757 8.69636C12.7527 9.27339 13.0769 10.056 13.0769 10.8721ZM20 6.25669V15.4875C19.9985 16.9151 19.4307 18.2838 18.4212 19.2933C17.4117 20.3027 16.043 20.8705 14.6154 20.8721H5.38462C3.957 20.8705 2.58828 20.3027 1.5788 19.2933C0.569324 18.2838 0.00152714 16.9151 0 15.4875V6.25669C0.00152714 4.82907 0.569324 3.46036 1.5788 2.45087C2.58828 1.44139 3.957 0.873597 5.38462 0.87207H14.6154C16.043 0.873597 17.4117 1.44139 18.4212 2.45087C19.4307 3.46036 19.9985 4.82907 20 6.25669ZM14.6154 10.8721C14.6154 9.95923 14.3447 9.0669 13.8376 8.3079C13.3304 7.5489 12.6096 6.95734 11.7662 6.60801C10.9229 6.25868 9.99488 6.16728 9.09958 6.34537C8.20429 6.52346 7.3819 6.96303 6.73643 7.6085C6.09096 8.25397 5.65138 9.07636 5.4733 9.97165C5.29521 10.867 5.38661 11.795 5.73594 12.6383C6.08527 13.4817 6.67683 14.2025 7.43583 14.7096C8.19483 15.2168 9.08716 15.4875 10 15.4875C11.2237 15.4862 12.3969 14.9995 13.2622 14.1342C14.1274 13.269 14.6141 12.0958 14.6154 10.8721ZM16.9231 5.10284C16.9231 4.87463 16.8554 4.65155 16.7286 4.4618C16.6018 4.27205 16.4216 4.12416 16.2108 4.03682C16 3.94949 15.768 3.92664 15.5441 3.97116C15.3203 4.01569 15.1147 4.12558 14.9533 4.28695C14.792 4.44832 14.6821 4.65391 14.6376 4.87774C14.593 5.10156 14.6159 5.33356 14.7032 5.5444C14.7905 5.75524 14.9384 5.93544 15.1282 6.06223C15.3179 6.18901 15.541 6.25669 15.7692 6.25669C16.0753 6.25669 16.3687 6.13512 16.5851 5.91873C16.8015 5.70234 16.9231 5.40886 16.9231 5.10284Z" fill="#FFF0DF"/>
</svg>
