<svg width="144" height="118" viewBox="0 0 144 118" fill="none" xmlns="http://www.w3.org/2000/svg">
<path d="M7.16619 80.8341H0.134766V80.6937H1.67859V64.259H0.134766V64.1187H7.16619C11.7135 64.1187 14.1555 67.9782 14.1555 72.3992C14.1555 77.0166 11.9521 80.8341 7.16619 80.8341ZM7.18023 80.6937C10.4503 80.6937 10.5626 77.8727 10.703 75.8658C10.8714 73.5641 10.8714 71.2343 10.703 68.9326C10.5766 67.2484 10.2258 64.273 7.18023 64.273H4.49958V80.7078H7.18023V80.6937Z" fill="#FFF4E8"/>
<path d="M15.77 80.8337V80.553C18.591 75.1356 21.426 69.7182 24.247 64.3148V64.2727H20.1068C19.4752 64.2727 19.1384 64.5113 18.8998 64.8902C18.1138 66.0411 17.3419 67.1779 16.556 68.3287H16.4156C16.57 66.9252 16.7103 65.5358 16.8647 64.1323H27.3066V64.413C24.5137 69.8164 21.7208 75.2198 18.9278 80.6372V80.7074H23.8821C24.5698 80.7074 24.8505 80.5249 25.0891 80.0899C25.9452 78.4197 26.7873 76.7496 27.6434 75.0654H27.8119C27.6154 76.9882 27.4189 78.9109 27.2224 80.8477H15.7841L15.77 80.8337Z" fill="#FFF4E8"/>
<path d="M29.272 80.8341V80.6937H30.8158V64.259H29.272V64.1187H35.1947V64.259H33.6508V80.6937H35.1947V80.8341H29.272Z" fill="#FFF4E8"/>
<path d="M36.6108 80.8341C36.6108 80.8341 36.6108 80.7358 36.6108 80.6937H38.1547V64.259H36.6108C36.6108 64.259 36.6108 64.1608 36.6108 64.1187H47.4036C47.5439 65.4379 47.6843 66.7572 47.8246 68.0765H47.6843C46.9124 67.0098 46.1405 65.9432 45.3685 64.8765C45.0317 64.4274 44.6808 64.259 43.9931 64.259H40.9897V71.9501H42.8844C43.5721 71.9501 43.8107 71.6132 44.0914 71.2624C44.5405 70.701 44.9896 70.1255 45.4387 69.5501H45.5791C45.4668 70.3641 45.3545 71.1781 45.2422 71.9922V72.0343C45.3545 72.8483 45.4668 73.6623 45.5791 74.4763H45.4387C44.9896 73.9149 44.5405 73.3395 44.0914 72.7641C43.8107 72.4132 43.5721 72.0764 42.8844 72.0764H40.9897V80.6797H44.3019C45.1019 80.6797 45.5089 80.4692 45.8457 79.9218C46.6457 78.6166 47.4597 77.2973 48.2597 75.9921H48.4001C48.2316 77.6061 48.0632 79.206 47.9088 80.82H36.6108V80.8341Z" fill="#FFF4E8"/>
<path d="M52.0918 65.8728V79.2059C52.6532 79.6971 53.2146 80.2023 53.776 80.6935H54.3654V80.8339H49.9585V80.6935H50.4076C50.8988 80.2023 51.4041 79.6971 51.8953 79.2059V65.5921C51.8111 65.4798 51.7409 65.3535 51.6567 65.2412C51.4602 64.9605 51.3479 64.8904 51.0672 64.8904H49.9585V64.75H54.9549C55.3338 64.75 55.3759 64.7781 55.6847 65.2412C57.9302 68.764 60.1898 72.2867 62.4354 75.7954V66.3781C61.874 65.8868 61.3126 65.3816 60.7512 64.8904H60.1618V64.75H64.5687V64.8904H64.1196C63.6284 65.3816 63.1231 65.8868 62.6319 66.3781V80.8479H61.9161C58.646 75.8656 55.3619 70.8692 52.0918 65.8868V65.8728ZM56.7654 63.2202L59.7548 60.708C60.4144 61.0168 61.074 61.3396 61.7477 61.6483V61.7887C60.1197 62.308 58.4916 62.8132 56.8636 63.3325L56.7654 63.2202Z" fill="#FFF4E8"/>
<path d="M77.4523 80.8341H70.4209V80.6937H71.9647V64.259H70.4209V64.1187H77.4523C81.9996 64.1187 84.4417 67.9782 84.4417 72.3992C84.4417 77.0166 82.2382 80.8341 77.4523 80.8341ZM77.4804 80.6937C80.7505 80.6937 80.8628 77.8727 81.0031 75.8658C81.1715 73.5641 81.1715 71.2343 81.0031 68.9326C80.8908 67.2484 80.5259 64.273 77.4804 64.273H74.7998V80.7078H77.4804V80.6937Z" fill="#FFF4E8"/>
<path d="M86.1396 72.5535C86.1396 67.7676 88.3852 63.8379 93.1009 63.8379C97.6482 63.8379 100.16 67.7536 100.16 72.4131C100.16 77.199 97.9148 81.1287 93.1711 81.1287C88.6238 81.1287 86.1396 77.2271 86.1396 72.5535ZM96.7219 75.8938C96.9043 73.6201 96.9184 71.2342 96.7219 68.9325C96.4552 65.7326 95.6833 63.9923 93.2132 63.9782C90.1396 63.9782 89.8027 65.915 89.5501 69.0729C89.3676 71.3465 89.3817 73.7605 89.5501 76.0341C89.8027 79.234 90.5887 80.9884 93.0588 80.9884C96.1324 80.9884 96.4692 79.0376 96.7219 75.8938Z" fill="#FFF4E8"/>
<path d="M101.579 80.6937H103.122V64.259H101.579V64.1187H108.708C111.01 64.1187 113.775 65.0449 113.775 68.1887C113.775 70.7711 111.178 71.8518 109.424 72.0483V72.0764C111.698 72.1044 114.449 73.3535 114.449 76.4131C114.449 78.9674 112.624 80.8481 109.382 80.8481H101.593V80.7078L101.579 80.6937ZM108.68 72.0062C110.056 72.0062 110.884 71.108 110.884 68.2168C110.884 65.2134 109.915 64.259 108.638 64.259H105.957V72.0062H108.68ZM108.75 80.6937C110.378 80.6937 111.206 79.6552 111.206 76.3851C111.206 72.6658 109.873 72.1465 108.905 72.1465H105.943V80.6937H108.736H108.75Z" fill="#FFF4E8"/>
<path d="M130.335 80.2025C130.083 80.6937 129.676 81.1288 128.37 81.1288C126.504 81.1288 125.619 79.9218 125.227 78.4341C124.918 77.2692 124.707 76.371 124.511 75.5149C123.935 72.8904 123.163 72.5957 121.928 72.5957H120.581V80.6937H122.125C122.125 80.6937 122.125 80.792 122.125 80.8341H116.202V80.6937H117.746V64.259H116.202V64.1187H123.332C125.634 64.1187 128.398 65.0169 128.398 68.4273C128.398 71.0799 126.012 72.5255 122.995 72.5957V72.6237C125.858 73.0027 126.686 74.0833 127.205 75.7254C127.556 76.8622 128.033 78.3078 128.272 78.9955C128.623 80.006 128.862 80.7779 129.409 80.7639C129.718 80.7639 129.984 80.5534 130.209 80.1183L130.321 80.1885L130.335 80.2025ZM122.995 72.4553C124.777 72.4553 125.507 71.529 125.507 68.4554C125.507 65.2134 124.539 64.259 123.262 64.259H120.581V72.4553H122.995Z" fill="#FFF4E8"/>
<path d="M133.62 80.8341V80.6937H135.135V73.157C133.409 70.1957 131.683 67.2203 129.956 64.259H129.016V64.1187H134.953V64.259H133.269L137.914 72.4272H137.956C139.458 69.7045 140.974 66.9818 142.475 64.259H140.244V64.1187H143.865V64.259H142.686C141.114 67.08 139.542 69.915 137.97 72.736V80.6937H139.486V80.8341H133.62Z" fill="#FFF4E8"/>
<path d="M52.5674 97.6331H53.4095V88.5666H52.5674V88.4824H56.4971C57.7602 88.4824 59.29 88.9877 59.29 90.728C59.29 92.1455 57.8585 92.749 56.8901 92.8613C58.1392 92.8893 59.6549 93.577 59.6549 95.2612C59.6549 96.6787 58.6444 97.7033 56.862 97.7033H52.5674V97.6191V97.6331ZM56.4831 92.8472C57.241 92.8472 57.7041 92.356 57.7041 90.7561C57.7041 89.1561 57.1708 88.5807 56.469 88.5807H54.9954V92.8472H56.4971H56.4831ZM56.5252 97.6331C57.4234 97.6331 57.8866 97.0577 57.8866 95.2612C57.8866 93.2121 57.1568 92.9174 56.6234 92.9174H54.9954V97.6331H56.5392H56.5252Z" fill="#FFF4E8"/>
<path d="M60.6943 97.7173V97.6331H61.5364V88.5666H60.6943V88.4824H63.9644V88.5666H63.1223V97.6331H63.9644V97.7173H60.6943Z" fill="#FFF4E8"/>
<path d="M64.862 94.8122H64.9463L66.3918 97.2963C66.6164 97.6753 66.9813 97.7876 67.6129 97.7876C68.89 97.7876 69.6198 97.156 69.6198 96.1174C69.6198 93.521 65.0445 93.9561 65.0445 90.9386C65.0445 89.6333 65.9848 88.3281 67.6971 88.3281C68.5251 88.3281 69.3111 88.5246 69.9426 88.7351L70.1812 90.8684H70.097L68.7497 88.9316C68.483 88.5527 68.2164 88.4123 67.7392 88.4123C66.8971 88.4123 66.1673 88.8755 66.1673 89.9281C66.1673 92.5947 70.8268 92.0894 70.8268 95.1631C70.8268 96.6227 69.6058 97.8718 67.5708 97.8718C66.7146 97.8718 65.5919 97.6472 65.1147 97.4648L64.834 94.8122H64.862Z" fill="#FFF4E8"/>
<path d="M73.4086 97.7173V97.6331H74.2507V88.5666H73.0297C72.6788 88.5666 72.4964 88.6929 72.37 88.9035L71.0788 90.7982H70.9946L71.2473 88.4824H78.8541L79.1067 90.7982H79.0225L77.7313 88.9035C77.605 88.707 77.4085 88.5666 77.0717 88.5666H75.8507V97.6331H76.6927V97.7173H73.4227H73.4086Z" fill="#FFF4E8"/>
<path d="M87.4015 97.3664C87.2611 97.6471 87.0366 97.8717 86.3208 97.8717C85.2822 97.8717 84.8051 97.198 84.5805 96.384C84.4121 95.7384 84.2998 95.2472 84.1875 94.77C83.8788 93.3244 83.4437 93.17 82.77 93.17H82.0262V97.6331H82.8683V97.7173H79.5981V97.6331H80.4402V88.5666H79.5981V88.4824H83.5279C84.791 88.4824 86.3208 88.9736 86.3208 90.8543C86.3208 92.3139 85.0015 93.1139 83.3454 93.156C84.9314 93.3806 85.3805 93.9841 85.6752 94.8823C85.8717 95.5139 86.1384 96.3138 86.2647 96.6928C86.4612 97.2542 86.5875 97.6752 86.8962 97.6752C87.0647 97.6752 87.205 97.5629 87.3453 97.3243L87.4155 97.3664H87.4015ZM83.3454 93.0858C84.3279 93.0858 84.7349 92.5806 84.7349 90.8824C84.7349 89.0859 84.2016 88.5666 83.4998 88.5666H82.0262V93.0858H83.3595H83.3454Z" fill="#FFF4E8"/>
<path d="M87.6123 93.1421C87.6123 90.5035 88.8474 88.3281 91.4578 88.3281C94.0683 88.3281 95.3455 90.4895 95.3455 93.0578C95.3455 95.6262 94.1104 97.8718 91.4859 97.8718C88.8614 97.8718 87.6123 95.7104 87.6123 93.1421ZM93.4508 94.9806C93.549 93.7315 93.549 92.4122 93.4508 91.1351C93.3104 89.3667 92.8754 88.3983 91.514 88.3983C89.8158 88.3983 89.6333 89.4649 89.493 91.2052C89.3947 92.4543 89.3947 93.7876 89.493 95.0508C89.6333 96.8192 90.0684 97.7876 91.4298 97.7876C93.128 97.7876 93.3104 96.7209 93.4508 94.9806Z" fill="#FFF4E8"/>
<path d="M33.958 93.002H21.874V93.4651H33.958V93.002Z" fill="#FFF4E8"/>
<path d="M128.259 93.002H116.175V93.4651H128.259V93.002Z" fill="#FFF4E8"/>
<path d="M72.3398 31.3049C72.1714 32.147 72.1152 32.947 72.1573 33.5645C72.1152 33.5645 72.0591 33.5645 72.017 33.5645C71.9609 33.5645 71.8907 33.5645 71.8345 33.5645C71.8766 32.933 71.8065 32.147 71.6381 31.3049C71.3854 30.098 70.9925 29.0875 70.5854 28.5261C70.6416 26.0559 71.2732 24.1191 72.031 24.1191C72.7889 24.1191 73.4064 25.9998 73.4766 28.3997C73.0415 28.9331 72.6065 30.0137 72.3538 31.3049H72.3398Z" fill="#FFF4E8"/>
<path d="M70.2056 33.9013C70.1214 33.9293 70.0231 33.9714 69.9389 34.0135C69.7705 33.6627 69.56 33.2978 69.3073 32.9329C68.7179 32.0627 68.0582 31.375 67.553 31.0662C66.7811 29.0873 66.6407 27.333 67.2442 27.0804C67.8477 26.8277 68.9565 28.1189 69.7986 30.0136C69.6301 30.575 69.6442 31.5855 69.8687 32.6943C69.9529 33.1294 70.0652 33.5364 70.2056 33.9013Z" fill="#FFF4E8"/>
<path d="M68.5641 34.9257C68.4799 35.0099 68.3957 35.0941 68.3115 35.1783C68.1571 35.0661 68.0027 34.9538 67.8343 34.8415C67.0483 34.3222 66.2764 33.9854 65.7431 33.9012C64.4379 32.5398 63.7221 31.1363 64.1431 30.7293C64.5502 30.3223 65.8975 30.996 67.2448 32.2591C67.301 32.7924 67.6518 33.6064 68.2132 34.4485C68.3255 34.617 68.4378 34.7713 68.5501 34.9117L68.5641 34.9257Z" fill="#FFF4E8"/>
<path d="M67.4132 36.5541C67.3711 36.6383 67.343 36.7366 67.315 36.8208C66.9501 36.6945 66.5431 36.5822 66.108 36.498C65.0694 36.3015 64.1291 36.2874 63.5537 36.4278C61.6169 35.5717 60.2695 34.4349 60.5221 33.8314C60.7748 33.2279 62.4589 33.3682 64.3957 34.098C64.6764 34.6173 65.4062 35.319 66.3466 35.9506C66.7115 36.2032 67.0904 36.4138 67.4272 36.5681L67.4132 36.5541Z" fill="#FFF4E8"/>
<path d="M67.0483 38.6029C67.0483 38.6029 67.0483 38.7292 67.0062 38.7854H66.9781C66.3466 38.7573 65.5606 38.8275 64.7185 38.9959C63.5256 39.2345 62.501 39.6415 61.9396 40.0485C59.4835 39.9924 57.5327 39.3608 57.5327 38.6029C57.5327 37.8451 59.4134 37.2416 61.8133 37.1714C62.3466 37.6065 63.4273 38.0415 64.7185 38.2801C65.5606 38.4486 66.3606 38.5047 66.9781 38.4626H67.0202C67.0202 38.4626 67.0343 38.5468 67.0343 38.6029H67.0483Z" fill="#FFF4E8"/>
<path d="M67.4271 40.6661C67.0763 40.8345 66.7114 41.045 66.3465 41.2976C65.4763 41.8871 64.7886 42.5467 64.4798 43.052C62.5009 43.8239 60.7466 43.9642 60.494 43.3607C60.2413 42.7573 61.5325 41.6625 63.4132 40.8064C63.9886 40.9748 64.9851 40.9608 66.0938 40.7362C66.5289 40.638 66.9359 40.5257 67.3008 40.3994C67.3289 40.4836 67.371 40.5819 67.4131 40.6661H67.4271Z" fill="#FFF4E8"/>
<path d="M68.5924 42.2943C68.4801 42.4346 68.3678 42.603 68.2556 42.7574C67.7363 43.5434 67.3995 44.3153 67.3152 44.8486C65.9539 46.1679 64.5504 46.8696 64.1434 46.4626C63.7364 46.0556 64.41 44.7082 65.6732 43.3609C66.2065 43.3048 67.0205 42.9539 67.8626 42.3925C68.031 42.2802 68.1854 42.1679 68.3257 42.0557L68.5784 42.3083L68.5924 42.2943Z" fill="#FFF4E8"/>
<path d="M69.9256 44.5118C69.7291 45.5503 69.701 46.4907 69.8414 47.0661C68.9993 49.0029 67.8625 50.3502 67.2449 50.0976C66.6414 49.845 66.7677 48.1608 67.5116 46.224C68.0309 45.9433 68.7326 45.2275 69.3642 44.2872C69.6168 43.9083 69.8273 43.5434 69.9957 43.2065C70.08 43.2486 70.1642 43.2767 70.2484 43.3048C70.1221 43.6697 70.0238 44.0767 69.9396 44.5118H69.9256Z" fill="#FFF4E8"/>
<path d="M73.4626 48.6659C73.4064 51.122 72.7749 53.0728 72.017 53.0728C71.2591 53.0728 70.6556 51.1922 70.5854 48.7922C71.0205 48.2589 71.4416 47.1782 71.6942 45.887C71.8626 45.045 71.9188 44.245 71.8767 43.6274C71.9188 43.6274 71.9749 43.6274 72.017 43.6274C72.0731 43.6274 72.1433 43.6274 72.1995 43.6274C72.1714 44.259 72.2416 45.045 72.41 45.887C72.6486 47.08 73.0556 48.1045 73.4626 48.6659Z" fill="#FFF4E8"/>
<path d="M76.7885 50.1114C76.199 50.364 75.0762 49.0728 74.2342 47.1781C74.4026 46.6027 74.3885 45.6062 74.164 44.4975C74.0798 44.0624 73.9535 43.6554 73.8271 43.2905C73.9114 43.2624 74.0096 43.2203 74.0938 43.1782C74.2622 43.5291 74.4727 43.894 74.7254 44.2589C75.3148 45.1291 75.9745 45.8168 76.4797 46.1255C77.2516 48.1044 77.392 49.8588 76.7885 50.1114Z" fill="#FFF4E8"/>
<path d="M79.8902 46.4622C79.4832 46.8692 78.1218 46.1815 76.7745 44.9184C76.7183 44.3851 76.3675 43.571 75.8061 42.729C75.6938 42.5605 75.5815 42.4062 75.4692 42.2658C75.5534 42.1816 75.6377 42.0974 75.7219 42.0132C75.8762 42.1255 76.0306 42.2377 76.199 42.35C76.985 42.8693 77.7569 43.2061 78.2902 43.2903C79.5955 44.6517 80.3112 46.0552 79.9042 46.4622H79.8902Z" fill="#FFF4E8"/>
<path d="M83.5247 43.3609C83.2721 43.9503 81.5739 43.824 79.6371 43.0942C79.3564 42.5749 78.6406 41.8732 77.7003 41.2416C77.3214 40.989 76.9565 40.7925 76.6196 40.6241C76.6617 40.5399 76.6898 40.4557 76.7319 40.3574C77.0968 40.4837 77.5038 40.596 77.9389 40.6802C78.9775 40.8767 79.9178 40.8907 80.5073 40.7504C82.4441 41.6065 83.7774 42.7433 83.5388 43.3468L83.5247 43.3609Z" fill="#FFF4E8"/>
<path d="M86.5006 38.6028C86.5006 39.3607 84.6199 39.9782 82.22 40.0484C81.6867 39.6133 80.606 39.1782 79.3148 38.9256C78.4727 38.7572 77.6867 38.7011 77.0552 38.7432C77.0552 38.7011 77.0552 38.6449 77.0552 38.6028C77.0552 38.5467 77.0552 38.4905 77.0552 38.4204C77.6867 38.4484 78.4727 38.3783 79.3148 38.2098C80.5218 37.9572 81.5323 37.5642 82.0937 37.1572C84.5498 37.2134 86.5006 37.8449 86.5006 38.6028Z" fill="#FFF4E8"/>
<path d="M80.6059 36.3855C80.0445 36.2171 79.034 36.2311 77.9252 36.4556C77.4902 36.5399 77.0831 36.6521 76.7182 36.7925C76.6902 36.7083 76.6481 36.61 76.606 36.5258C76.9568 36.3574 77.3217 36.1469 77.6866 35.8942C78.5568 35.2908 79.2445 34.6452 79.5533 34.1399C81.5322 33.368 83.2725 33.2276 83.5391 33.8311C83.7777 34.4346 82.5006 35.5293 80.6059 36.3855Z" fill="#FFF4E8"/>
<path d="M78.3466 33.8311C77.8133 33.8873 76.9993 34.2381 76.1572 34.7995C75.9888 34.9118 75.8344 35.0241 75.694 35.1364C75.6098 35.0522 75.5256 34.968 75.4414 34.8837C75.5537 34.7294 75.666 34.575 75.7782 34.4066C76.2975 33.6206 76.6344 32.8487 76.7186 32.3154C78.094 31.0101 79.4834 30.2944 79.9045 30.7154C80.3115 31.1224 79.6238 32.4698 78.3606 33.8171L78.3466 33.8311Z" fill="#FFF4E8"/>
<path d="M76.5219 30.9679C76.0026 31.2486 75.3009 31.9643 74.6693 32.9047C74.4308 33.2696 74.2202 33.6485 74.0518 33.9853C73.9676 33.9432 73.8694 33.9152 73.7852 33.8871C73.9115 33.5222 74.0237 33.1152 74.108 32.6661C74.3044 31.6415 74.3185 30.6872 74.1781 30.1118C75.0342 28.175 76.1711 26.8276 76.7746 27.0802C77.364 27.3188 77.2517 29.017 76.5079 30.9538L76.5219 30.9679Z" fill="#FFF4E8"/>
<path d="M75.4274 38.6028C75.4274 40.4835 73.8976 42.0133 72.0169 42.0133C70.1362 42.0133 68.6064 40.4835 68.6064 38.6028C68.6064 36.7222 70.1362 35.1924 72.0169 35.1924C73.8976 35.1924 75.4274 36.7222 75.4274 38.6028Z" fill="#FFF4E8"/>
<path d="M75.4274 38.6028C75.4274 40.4835 73.8976 42.0133 72.0169 42.0133C70.1362 42.0133 68.6064 40.4835 68.6064 38.6028C68.6064 36.7222 70.1362 35.1924 72.0169 35.1924C73.8976 35.1924 75.4274 36.7222 75.4274 38.6028Z" fill="#FFF4E8"/>
<path d="M72.116 57.1992C69.5617 57.1992 67.1617 56.2027 65.3513 54.3922L56.2286 45.2696C52.4954 41.5364 52.4954 35.4593 56.2286 31.7261L65.1548 22.7999C68.888 19.0667 74.9651 19.0667 78.6983 22.7999L87.8209 31.9225C91.5542 35.6558 91.5542 41.7329 87.8209 45.4661L78.8948 54.3922C77.0843 56.2027 74.6844 57.1992 72.1301 57.1992H72.116ZM71.9195 21.4105C69.8284 21.4105 67.7372 22.2105 66.1372 23.7964L57.2111 32.7225C54.0252 35.9084 54.0252 41.0873 57.2111 44.2872L66.3337 53.4098C67.8775 54.9536 69.9266 55.8097 72.116 55.8097C74.3054 55.8097 76.3545 54.9536 77.8983 53.4098L86.8245 44.4837C90.0104 41.2978 90.0104 36.1189 86.8245 32.919L77.7019 23.7964C76.1019 22.1964 74.0107 21.4105 71.9195 21.4105Z" fill="#FFF4E8"/>
</svg>
