<svg width="555" height="514" viewBox="0 0 555 514" fill="none" xmlns="http://www.w3.org/2000/svg">
<path d="M278.619 61.9408C277.696 66.5546 277.389 70.9378 277.619 74.3212C277.389 74.3212 277.081 74.3212 276.85 74.3212C276.543 74.3212 276.158 74.3212 275.851 74.3212C276.081 70.8609 275.697 66.5546 274.774 61.9408C273.39 55.3276 271.237 49.791 269.007 46.7151C269.314 33.1812 272.775 22.5693 276.927 22.5693C281.08 22.5693 284.463 32.8736 284.848 46.023C282.464 48.9451 280.08 54.8662 278.696 61.9408H278.619Z" fill="white"/>
<path d="M266.931 76.167C266.469 76.3208 265.931 76.5515 265.47 76.7821C264.547 74.8597 263.394 72.8604 262.009 70.861C258.78 66.0934 255.166 62.3255 252.397 60.6337C248.168 49.7912 247.399 40.179 250.705 38.7949C254.012 37.4107 260.087 44.4853 264.701 54.8664C263.778 57.9423 263.855 63.4789 265.085 69.5538C265.547 71.9376 266.162 74.1676 266.931 76.167Z" fill="white"/>
<path d="M257.934 81.7806C257.472 82.242 257.011 82.7034 256.55 83.1648C255.704 82.5496 254.858 81.9344 253.935 81.3192C249.629 78.474 245.399 76.6285 242.477 76.1671C235.326 68.7081 231.404 61.0183 233.711 58.7883C235.941 56.5583 243.323 60.2494 250.705 67.1701C251.013 70.0922 252.935 74.5523 256.011 79.1661C256.626 80.0889 257.242 80.9347 257.857 81.7037L257.934 81.7806Z" fill="white"/>
<path d="M251.628 90.7004C251.397 91.1618 251.243 91.7001 251.09 92.1615C249.09 91.4694 246.86 90.8542 244.476 90.3928C238.786 89.3163 233.634 89.2394 230.481 90.0084C219.869 85.3176 212.487 79.0889 213.871 75.7824C215.255 72.4758 224.483 73.2447 235.095 77.2434C236.633 80.0886 240.632 83.9335 245.784 87.3938C247.783 88.778 249.859 89.9314 251.705 90.7773L251.628 90.7004Z" fill="white"/>
<path d="M249.629 101.928C249.629 101.928 249.629 102.62 249.398 102.927H249.244C245.784 102.773 241.477 103.158 236.864 104.081C230.327 105.388 224.714 107.618 221.638 109.848C208.181 109.54 197.492 106.08 197.492 101.928C197.492 97.7751 207.796 94.4685 220.946 94.084C223.868 96.4678 229.789 98.8516 236.864 100.159C241.477 101.082 245.861 101.389 249.244 101.159H249.475C249.475 101.159 249.552 101.62 249.552 101.928H249.629Z" fill="white"/>
<path d="M251.705 113.231C249.783 114.154 247.783 115.307 245.784 116.691C241.016 119.921 237.248 123.535 235.557 126.304C224.714 130.533 215.102 131.302 213.718 127.995C212.334 124.689 219.408 118.691 229.712 114C232.865 114.923 238.325 114.846 244.4 113.616C246.784 113.077 249.014 112.462 251.013 111.77C251.167 112.231 251.397 112.77 251.628 113.231H251.705Z" fill="white"/>
<path d="M258.088 122.152C257.472 122.92 256.857 123.843 256.242 124.689C253.397 128.995 251.551 133.225 251.09 136.147C243.631 143.375 235.941 147.22 233.711 144.99C231.481 142.76 235.172 135.378 242.093 127.996C245.015 127.688 249.475 125.766 254.089 122.69C255.012 122.075 255.858 121.459 256.627 120.844L258.011 122.228L258.088 122.152Z" fill="white"/>
<path d="M265.393 134.301C264.317 139.991 264.163 145.143 264.932 148.296C260.318 158.908 254.089 166.29 250.706 164.906C247.399 163.522 248.091 154.294 252.167 143.682C255.012 142.144 258.857 138.223 262.317 133.07C263.701 130.994 264.855 128.995 265.778 127.149C266.239 127.38 266.7 127.534 267.162 127.688C266.47 129.687 265.931 131.917 265.47 134.301H265.393Z" fill="white"/>
<path d="M284.771 157.063C284.463 170.52 281.003 181.209 276.85 181.209C272.698 181.209 269.391 170.905 269.007 157.755C271.391 154.833 273.698 148.912 275.082 141.838C276.005 137.224 276.312 132.841 276.081 129.457C276.312 129.457 276.62 129.457 276.85 129.457C277.158 129.457 277.542 129.457 277.85 129.457C277.696 132.917 278.081 137.224 279.004 141.838C280.311 148.374 282.541 153.987 284.771 157.063Z" fill="white"/>
<path d="M302.995 164.983C299.766 166.368 293.614 159.293 289 148.912C289.923 145.759 289.846 140.299 288.616 134.224C288.154 131.841 287.462 129.611 286.77 127.611C287.231 127.457 287.77 127.227 288.231 126.996C289.154 128.919 290.307 130.918 291.691 132.917C294.921 137.685 298.535 141.453 301.304 143.145C305.533 153.987 306.302 163.599 302.995 164.983Z" fill="white"/>
<path d="M319.99 144.99C317.76 147.22 310.301 143.452 302.919 136.531C302.611 133.609 300.689 129.149 297.613 124.535C296.997 123.612 296.382 122.766 295.767 121.997C296.228 121.536 296.69 121.075 297.151 120.613C297.997 121.228 298.843 121.844 299.766 122.459C304.072 125.304 308.301 127.15 311.223 127.611C318.375 135.07 322.297 142.76 320.067 144.99H319.99Z" fill="white"/>
<path d="M339.906 127.996C338.522 131.225 329.217 130.533 318.605 126.535C317.067 123.689 313.145 119.844 307.993 116.384C305.917 115 303.918 113.923 302.072 113.001C302.303 112.539 302.457 112.078 302.687 111.54C304.687 112.232 306.917 112.847 309.301 113.308C314.991 114.385 320.143 114.462 323.373 113.693C333.985 118.383 341.29 124.612 339.983 127.919L339.906 127.996Z" fill="white"/>
<path d="M356.208 101.927C356.208 106.08 345.904 109.463 332.754 109.848C329.832 107.464 323.911 105.08 316.837 103.696C312.223 102.773 307.916 102.466 304.456 102.696C304.456 102.466 304.456 102.158 304.456 101.927C304.456 101.62 304.456 101.312 304.456 100.928C307.916 101.081 312.223 100.697 316.837 99.7741C323.45 98.39 328.986 96.2369 332.062 94.0068C345.519 94.3144 356.208 97.7748 356.208 101.927Z" fill="white"/>
<path d="M323.912 89.778C320.836 88.8552 315.299 88.9321 309.224 90.1624C306.841 90.6238 304.611 91.239 302.611 92.008C302.457 91.5466 302.227 91.0083 301.996 90.5469C303.919 89.6242 305.918 88.4707 307.917 87.0865C312.685 83.78 316.453 80.2427 318.145 77.4744C328.987 73.245 338.522 72.4761 339.983 75.7826C341.291 79.0892 334.293 85.0872 323.912 89.778Z" fill="white"/>
<path d="M311.531 75.7823C308.608 76.0899 304.148 78.0123 299.535 81.0882C298.612 81.7034 297.766 82.3186 296.997 82.9337C296.536 82.4723 296.074 82.011 295.613 81.5496C296.228 80.7037 296.843 79.8578 297.458 78.9351C300.304 74.6288 302.149 70.3995 302.61 67.4774C310.146 60.3259 317.759 56.4041 320.066 58.7111C322.296 60.9411 318.528 68.3232 311.607 75.7054L311.531 75.7823Z" fill="white"/>
<path d="M301.535 60.0952C298.689 61.6332 294.844 65.555 291.384 70.7071C290.077 72.7064 288.923 74.7826 288.001 76.6281C287.539 76.3975 287.001 76.2437 286.54 76.0899C287.232 74.0905 287.847 71.8605 288.308 69.3998C289.385 63.7863 289.462 58.5573 288.693 55.4045C293.383 44.7927 299.612 37.4105 302.919 38.7947C306.148 40.1019 305.533 49.4065 301.458 60.0183L301.535 60.0952Z" fill="white"/>
<path d="M295.536 101.927C295.536 112.232 287.154 120.613 276.85 120.613C266.546 120.613 258.164 112.232 258.164 101.927C258.164 91.623 266.546 83.2412 276.85 83.2412C287.154 83.2412 295.536 91.623 295.536 101.927Z" fill="white"/>
<path d="M295.536 101.927C295.536 112.232 287.154 120.613 276.85 120.613C266.546 120.613 258.164 112.232 258.164 101.927C258.164 91.623 266.546 83.2412 276.85 83.2412C287.154 83.2412 295.536 91.623 295.536 101.927Z" fill="white"/>
<path d="M277.389 203.816C263.393 203.816 250.244 198.357 240.324 188.437L190.341 138.454C169.886 117.999 169.886 84.7024 190.341 64.2477L239.248 15.341C259.702 -5.11367 292.999 -5.11367 313.454 15.341L363.437 65.3243C383.892 85.779 383.892 119.075 363.437 139.53L314.53 188.437C304.61 198.357 291.461 203.816 277.466 203.816H277.389ZM276.312 7.72817C264.855 7.72817 253.397 12.1113 244.631 20.8007L195.724 69.7074C178.268 87.1631 178.268 115.538 195.724 133.071L245.707 183.054C254.166 191.513 265.393 196.204 277.389 196.204C289.385 196.204 300.612 191.513 309.07 183.054L357.977 134.147C375.433 116.692 375.433 88.3166 357.977 70.784L307.994 20.8007C299.228 12.0344 287.77 7.72817 276.312 7.72817Z" fill="white"/>
<path d="M151.824 244.343H178.295V248.016H168.796V329.327H178.295V333H145.998V329.327H155.497V248.523H154.991L127.887 333H124.087L95.9705 248.523H95.4639V329.327H104.963V333H81.5321V329.327H91.031V248.016H81.5321V244.343H108.509L130.547 311.216L151.824 244.343ZM244.853 329.327L235.987 303.49H207.237L197.865 329.327H209.39V333H183.933V329.327H192.798L224.968 242.95H228.388L259.418 329.327H268.157V333H233.707V329.327H244.853ZM222.055 261.821L208.503 299.817H234.721L222.055 261.821ZM310.809 246.496C293.711 246.496 283.959 259.161 283.959 288.798C283.959 314.889 293.078 330.72 311.316 330.72C317.902 330.72 324.614 327.174 327.654 321.728V300.577H316.002V296.904H349.312V300.577H340.953V332.873H339.053C338.166 331.227 337.28 329.707 334.493 329.707C330.314 329.707 321.321 334.267 310.303 334.267C285.605 334.267 269.394 320.841 269.394 289.178C269.394 258.528 288.265 242.95 311.569 242.95C321.448 242.95 329.174 246.876 333.1 246.876C335 246.876 335.506 245.99 336.393 244.343H338.293L339.179 270.56H336.393C332.593 254.602 324.741 246.496 310.809 246.496ZM356.977 244.343H389.274V248.016H379.775V329.327H389.274V333H356.977V329.327H366.476V248.016H356.977V244.343ZM455.858 329.327L446.993 303.49H418.242L408.87 329.327H420.395V333H394.938V329.327H403.804L435.974 242.95H439.393L470.423 329.327H479.162V333H444.713V329.327H455.858ZM433.061 261.821L419.509 299.817H445.726L433.061 261.821ZM35.8569 472.72C49.2821 472.72 58.0212 464.994 58.0212 453.849C58.0212 441.31 48.5222 439.157 32.3106 434.978C17.4923 431.178 8.87988 426.872 8.87988 410.787C8.87988 397.995 17.4923 384.95 35.2237 384.95C45.1026 384.95 51.0553 388.876 54.9815 388.876C56.8813 388.876 57.3879 387.99 58.2745 386.343H60.1743L61.0608 411.927H58.2745C54.4749 396.095 49.2821 388.496 34.8437 388.496C23.065 388.496 16.7324 394.955 16.7324 404.708C16.7324 414.84 26.2313 418.133 37.5034 421.173C51.3086 424.846 65.2404 428.645 65.2404 447.896C65.2404 464.108 54.9815 476.267 36.2369 476.267C24.4582 476.267 17.8722 472.467 13.946 472.467C12.0462 472.467 11.6662 473.86 10.653 476.267H8.49993L7.2334 447.39H10.0198C13.8193 463.348 20.152 472.72 35.8569 472.72ZM147.619 386.343H174.09V390.016H164.591V471.327H174.09V475H141.793V471.327H151.292V390.523H150.785L123.682 475H119.882L91.7652 390.523H91.2586V471.327H100.758V475H77.3268V471.327H86.8258V390.016H77.3268V386.343H104.304L126.341 453.216L147.619 386.343ZM240.648 471.327L231.782 445.49H203.032L193.659 471.327H205.185V475H179.728V471.327H188.593L220.763 384.95H224.183L255.213 471.327H263.952V475H229.502V471.327H240.648ZM217.85 403.821L204.298 441.817H230.515L217.85 403.821ZM269.656 386.343H301.952V390.016H292.453V429.785L297.266 428.518L328.296 390.016H317.024V386.343H342.735V390.016H334.122L307.398 423.326L340.455 471.327H347.294V475H314.618V471.327H324.37L297.9 433.205L292.453 434.471V471.327H301.952V475H269.656V471.327H279.155V390.016H269.656V386.343ZM412.791 430.292C412.791 406.608 408.485 388.876 388.094 388.876C366.436 388.876 362.13 406.608 362.13 430.798C362.13 453.216 366.69 472.34 387.714 472.34C408.105 472.34 412.791 454.482 412.791 430.292ZM347.439 430.925C347.439 403.061 364.283 384.95 388.474 384.95C412.411 384.95 427.61 401.541 427.61 429.785C427.61 458.535 413.425 476.267 387.461 476.267C361.75 476.267 347.439 460.055 347.439 430.925ZM377.455 380.39L395.44 361.772L397.72 362.532C401.013 363.672 402.026 365.065 402.026 367.218C402.026 369.625 400.633 370.891 397.973 372.158L378.848 382.164L377.455 380.39ZM471.407 456.889L490.531 410.914L482.552 390.016H474.067V386.343H509.529V390.016H497.117L520.801 455.369L541.573 390.016H528.781V386.343H554.998V390.016H546.639L518.015 476.267H515.102L492.938 417.373L467.987 476.267H465.074L436.324 390.016H427.838V386.343H463.301V390.016H450.889L471.407 456.889Z" fill="white"/>
</svg>
