<svg width="39" height="40" viewBox="0 0 39 40" fill="none" xmlns="http://www.w3.org/2000/svg">
<path d="M19.8299 12.8437C19.6533 13.7267 19.5944 14.5656 19.6385 15.2131C19.5944 15.2131 19.5355 15.2131 19.4914 15.2131C19.4325 15.2131 19.3589 15.2131 19.3 15.2131C19.3442 14.5509 19.2706 13.7267 19.094 12.8437C18.8291 11.578 18.417 10.5184 17.9902 9.92972C18.0491 7.33954 18.7114 5.30859 19.5061 5.30859C20.3008 5.30859 20.9484 7.28067 21.0219 9.79727C20.5657 10.3565 20.1095 11.4897 19.8446 12.8437H19.8299Z" fill="#173800"/>
<path d="M17.5923 15.5664C17.504 15.5958 17.401 15.64 17.3127 15.6841C17.1361 15.3162 16.9154 14.9335 16.6505 14.5509C16.0323 13.6385 15.3407 12.9173 14.8108 12.5936C14.0014 10.5185 13.8542 8.67884 14.4871 8.41393C15.1199 8.14903 16.2825 9.50299 17.1656 11.4898C16.989 12.0785 17.0037 13.1381 17.2391 14.3007C17.3274 14.7569 17.4452 15.1837 17.5923 15.5664Z" fill="#173800"/>
<path d="M15.8698 16.6408C15.7815 16.7291 15.6932 16.8174 15.6049 16.9057C15.443 16.788 15.2811 16.6703 15.1045 16.5525C14.2804 16.008 13.471 15.6548 12.9117 15.5665C11.543 14.1389 10.7925 12.6672 11.234 12.2404C11.6608 11.8137 13.0736 12.5201 14.4864 13.8446C14.5453 14.4038 14.9132 15.2574 15.5019 16.1404C15.6196 16.3171 15.7374 16.4789 15.8551 16.6261L15.8698 16.6408Z" fill="#173800"/>
<path d="M14.6632 18.3479C14.6191 18.4362 14.5896 18.5392 14.5602 18.6275C14.1776 18.4951 13.7508 18.3773 13.2945 18.289C12.2055 18.083 11.2195 18.0683 10.6161 18.2155C8.58512 17.3177 7.17228 16.1256 7.43719 15.4928C7.70209 14.86 9.46813 15.0072 11.4991 15.7724C11.7934 16.317 12.5587 17.0528 13.5447 17.7151C13.9274 17.98 14.3247 18.2007 14.6779 18.3626L14.6632 18.3479Z" fill="#173800"/>
<path d="M14.2808 20.4967C14.2808 20.4967 14.2808 20.6292 14.2367 20.6881H14.2073C13.545 20.6586 12.7208 20.7322 11.8378 20.9088C10.5869 21.159 9.51254 21.5858 8.92387 22.0126C6.34839 21.9537 4.30273 21.2915 4.30273 20.4967C4.30273 19.702 6.2748 19.0692 8.79141 18.9956C9.35065 19.4518 10.4839 19.9081 11.8378 20.1582C12.7208 20.3349 13.5597 20.3937 14.2073 20.3496H14.2514C14.2514 20.3496 14.2661 20.4379 14.2661 20.4967H14.2808Z" fill="#173800"/>
<path d="M14.6783 22.66C14.3103 22.8366 13.9277 23.0574 13.5451 23.3223C12.6326 23.9404 11.9115 24.6321 11.5877 25.1619C9.5126 25.9713 7.67299 26.1185 7.40808 25.4856C7.14318 24.8528 8.49713 23.7049 10.4692 22.8072C11.0726 22.9838 12.1175 22.969 13.2802 22.7336C13.7364 22.6306 14.1632 22.5128 14.5458 22.3804C14.5752 22.4687 14.6194 22.5717 14.6636 22.66H14.6783Z" fill="#173800"/>
<path d="M15.8999 24.3674C15.7821 24.5145 15.6644 24.6911 15.5467 24.853C15.0021 25.6772 14.6489 26.4866 14.5606 27.0459C13.1331 28.4293 11.6614 29.1651 11.2346 28.7383C10.8078 28.3115 11.5142 26.8987 12.8387 25.4859C13.398 25.427 14.2516 25.0591 15.1346 24.4704C15.3112 24.3527 15.4731 24.2349 15.6202 24.1172L15.8851 24.3821L15.8999 24.3674Z" fill="#173800"/>
<path d="M17.2981 26.6919C17.0921 27.781 17.0626 28.767 17.2098 29.3704C16.3268 31.4014 15.1347 32.8142 14.4872 32.5493C13.8543 32.2844 13.9868 30.5183 14.7668 28.4874C15.3113 28.193 16.0472 27.4425 16.7094 26.4564C16.9743 26.0591 17.1951 25.6764 17.3717 25.3232C17.46 25.3674 17.5483 25.3968 17.6366 25.4263C17.5041 25.8089 17.4011 26.2357 17.3128 26.6919H17.2981Z" fill="#173800"/>
<path d="M21.0072 31.049C20.9484 33.6245 20.2861 35.6702 19.4914 35.6702C18.6967 35.6702 18.0638 33.6981 17.9902 31.1815C18.4465 30.6222 18.888 29.489 19.1529 28.1351C19.3295 27.252 19.3884 26.4132 19.3442 25.7656C19.3884 25.7656 19.4472 25.7656 19.4914 25.7656C19.5502 25.7656 19.6238 25.7656 19.6827 25.7656C19.6533 26.4279 19.7268 27.252 19.9034 28.1351C20.1536 29.386 20.5804 30.4603 21.0072 31.049Z" fill="#173800"/>
<path d="M24.4949 32.5646C23.8768 32.8295 22.6995 31.4756 21.8164 29.4888C21.993 28.8854 21.9783 27.8405 21.7429 26.6778C21.6546 26.2216 21.5221 25.7948 21.3896 25.4122C21.478 25.3827 21.581 25.3386 21.6693 25.2944C21.8459 25.6624 22.0666 26.045 22.3315 26.4276C22.9496 27.3401 23.6413 28.0612 24.1712 28.385C24.9806 30.4601 25.1278 32.2997 24.4949 32.5646Z" fill="#173800"/>
<path d="M27.7472 28.738C27.3204 29.1648 25.8928 28.4437 24.48 27.1192C24.4211 26.5599 24.0532 25.7063 23.4645 24.8233C23.3468 24.6467 23.2291 24.4848 23.1113 24.3377C23.1996 24.2494 23.2879 24.1611 23.3762 24.0728C23.5381 24.1905 23.7 24.3082 23.8766 24.426C24.7008 24.9705 25.5102 25.3237 26.0694 25.412C27.4381 26.8395 28.1887 28.3112 27.7619 28.738H27.7472Z" fill="#173800"/>
<path d="M31.5581 25.4854C31.2932 26.1035 29.5125 25.971 27.4815 25.2058C27.1872 24.6612 26.4366 23.9254 25.4506 23.2631C25.0532 22.9982 24.6706 22.7922 24.3174 22.6156C24.3615 22.5273 24.391 22.439 24.4351 22.3359C24.8178 22.4684 25.2446 22.5861 25.7008 22.6744C26.7898 22.8805 27.7759 22.8952 28.394 22.748C30.4249 23.6458 31.823 24.8378 31.5729 25.4707L31.5581 25.4854Z" fill="#173800"/>
<path d="M34.6789 20.4963C34.6789 21.291 32.7069 21.9386 30.1903 22.0122C29.631 21.5559 28.4978 21.0997 27.1438 20.8348C26.2608 20.6582 25.4367 20.5993 24.7744 20.6435C24.7744 20.5993 24.7744 20.5405 24.7744 20.4963C24.7744 20.4374 24.7744 20.3786 24.7744 20.305C25.4367 20.3344 26.2608 20.2608 27.1438 20.0842C28.4095 19.8193 29.4691 19.4073 30.0578 18.9805C32.6333 19.0393 34.6789 19.7016 34.6789 20.4963Z" fill="#173800"/>
<path d="M28.4971 18.1709C27.9084 17.9943 26.8488 18.009 25.6861 18.2445C25.2299 18.3328 24.8031 18.4505 24.4205 18.5977C24.391 18.5094 24.3469 18.4064 24.3027 18.3181C24.6707 18.1415 25.0533 17.9207 25.4359 17.6558C26.3484 17.023 27.0695 16.346 27.3933 15.8162C29.4684 15.0068 31.2933 14.8596 31.5729 15.4924C31.8231 16.1253 30.4839 17.2732 28.4971 18.1709Z" fill="#173800"/>
<path d="M26.1275 15.4928C25.5682 15.5517 24.7146 15.9196 23.8316 16.5083C23.655 16.6261 23.4931 16.7438 23.346 16.8615C23.2577 16.7732 23.1694 16.6849 23.0811 16.5966C23.1988 16.4347 23.3165 16.2728 23.4343 16.0962C23.9788 15.2721 24.332 14.4627 24.4203 13.9034C25.8626 12.5347 27.3195 11.7842 27.7611 12.2257C28.1878 12.6525 27.4667 14.0653 26.1422 15.4781L26.1275 15.4928Z" fill="#173800"/>
<path d="M24.2155 12.4904C23.671 12.7847 22.9351 13.5353 22.2729 14.5213C22.0227 14.9039 21.8019 15.3013 21.6253 15.6545C21.537 15.6103 21.434 15.5809 21.3457 15.5515C21.4782 15.1688 21.5959 14.742 21.6842 14.2711C21.8902 13.1968 21.9049 12.196 21.7578 11.5926C22.6555 9.56167 23.8476 8.14884 24.4804 8.41375C25.0985 8.66394 24.9808 10.4447 24.2008 12.4756L24.2155 12.4904Z" fill="#173800"/>
<path d="M23.0675 20.4961C23.0675 22.4682 21.4633 24.0724 19.4913 24.0724C17.5192 24.0724 15.915 22.4682 15.915 20.4961C15.915 18.5241 17.5192 16.9199 19.4913 16.9199C21.4633 16.9199 23.0675 18.5241 23.0675 20.4961Z" fill="#173800"/>
<path d="M23.0675 20.4961C23.0675 22.4682 21.4633 24.0724 19.4913 24.0724C17.5192 24.0724 15.915 22.4682 15.915 20.4961C15.915 18.5241 17.5192 16.9199 19.4913 16.9199C21.4633 16.9199 23.0675 18.5241 23.0675 20.4961Z" fill="#173800"/>
<path d="M19.5957 39.9961C16.9172 39.9961 14.4006 38.9512 12.5021 37.0527L2.93604 27.4867C-0.978679 23.572 -0.978679 17.1995 2.93604 13.2848L12.296 3.92481C16.2108 0.0100904 22.5832 0.0100904 26.4979 3.92481L36.064 13.4908C39.9787 17.4056 39.9787 23.778 36.064 27.6927L26.704 37.0527C24.8055 38.9512 22.2889 39.9961 19.6104 39.9961H19.5957ZM19.3896 2.46782C17.1968 2.46782 15.004 3.30669 13.3262 4.96971L3.96622 14.3297C0.625467 17.6705 0.625467 23.101 3.96622 26.4565L13.5323 36.0225C15.1511 37.6414 17.2998 38.5391 19.5957 38.5391C21.8915 38.5391 24.0402 37.6414 25.659 36.0225L35.0191 26.6625C38.3598 23.3218 38.3598 17.8912 35.0191 14.5357L25.453 4.96971C23.7753 3.29198 21.5825 2.46782 19.3896 2.46782Z" fill="#173800"/>
</svg>
