<svg width="17" height="18" viewBox="0 0 17 18" fill="none" xmlns="http://www.w3.org/2000/svg">
<path d="M15.334 2.0542H2.00065C1.63246 2.0542 1.33398 2.35268 1.33398 2.72087V16.0542C1.33398 16.4224 1.63246 16.7209 2.00065 16.7209H15.334C15.7022 16.7209 16.0007 16.4224 16.0007 16.0542V2.72087C16.0007 2.35268 15.7022 2.0542 15.334 2.0542Z" stroke="#49B500" stroke-width="1.33333" stroke-linecap="round" stroke-linejoin="round"/>
<path d="M12.668 0.720703V3.38737" stroke="#49B500" stroke-width="1.33333" stroke-linecap="round" stroke-linejoin="round"/>
<path d="M4.66797 0.720703V3.38737" stroke="#49B500" stroke-width="1.33333" stroke-linecap="round" stroke-linejoin="round"/>
<path d="M1.33398 6.0542H16.0007" stroke="#49B500" stroke-width="1.33333" stroke-linecap="round" stroke-linejoin="round"/>
<path d="M5.33398 9.38737L6.66732 8.7207V14.054" stroke="#49B500" stroke-width="1.33333" stroke-linecap="round" stroke-linejoin="round"/>
<path d="M9.51232 9.3883C9.60355 9.23122 9.72592 9.09444 9.87191 8.98635C10.0179 8.87825 10.1845 8.80114 10.3613 8.75972C10.5382 8.71831 10.7217 8.71347 10.9005 8.74551C11.0793 8.77755 11.2497 8.84579 11.4011 8.94604C11.5526 9.0463 11.682 9.17644 11.7814 9.3285C11.8808 9.48056 11.948 9.65133 11.9791 9.83032C12.0101 10.0093 12.0042 10.1927 11.9618 10.3694C11.9193 10.546 11.8412 10.7121 11.7323 10.8575L9.33398 14.055H12.0007" stroke="#49B500" stroke-width="1.33333" stroke-linecap="round" stroke-linejoin="round"/>
</svg>
