<svg width="39" height="40" viewBox="0 0 39 40" fill="none" xmlns="http://www.w3.org/2000/svg">
<path d="M19.8299 12.3193C19.6533 13.2023 19.5944 14.0412 19.6385 14.6887C19.5944 14.6887 19.5355 14.6887 19.4914 14.6887C19.4325 14.6887 19.3589 14.6887 19.3 14.6887C19.3442 14.0264 19.2706 13.2023 19.094 12.3193C18.8291 11.0536 18.417 9.99399 17.9902 9.40531C18.0491 6.81512 18.7114 4.78418 19.5061 4.78418C20.3008 4.78418 20.9484 6.75625 21.0219 9.27286C20.5657 9.8321 20.1095 10.9653 19.8446 12.3193H19.8299Z" fill="#173800"/>
<path d="M17.5923 15.042C17.504 15.0714 17.401 15.1156 17.3127 15.1597C17.1361 14.7918 16.9154 14.4091 16.6505 14.0265C16.0323 13.114 15.3407 12.3929 14.8108 12.0691C14.0014 9.99405 13.8542 8.15442 14.4871 7.88952C15.1199 7.62461 16.2825 8.97857 17.1656 10.9654C16.989 11.554 17.0037 12.6137 17.2391 13.7763C17.3274 14.2325 17.4452 14.6593 17.5923 15.042Z" fill="#173800"/>
<path d="M15.8698 16.1164C15.7815 16.2047 15.6932 16.293 15.6049 16.3813C15.443 16.2636 15.2811 16.1458 15.1045 16.0281C14.2804 15.4836 13.471 15.1304 12.9117 15.0421C11.543 13.6145 10.7925 12.1428 11.234 11.716C11.6608 11.2892 13.0736 11.9957 14.4864 13.3202C14.5453 13.8794 14.9132 14.733 15.5019 15.616C15.6196 15.7926 15.7374 15.9545 15.8551 16.1017L15.8698 16.1164Z" fill="#173800"/>
<path d="M14.6642 17.824C14.6201 17.9123 14.5906 18.0153 14.5612 18.1036C14.1785 17.9712 13.7518 17.8534 13.2955 17.7651C12.2065 17.5591 11.2204 17.5444 10.617 17.6915C8.58609 16.7938 7.17326 15.6017 7.43816 14.9689C7.70307 14.3361 9.46911 14.4832 11.5001 15.2485C11.7944 15.793 12.5597 16.5289 13.5457 17.1912C13.9284 17.4561 14.3257 17.6768 14.6789 17.8387L14.6642 17.824Z" fill="#173800"/>
<path d="M14.2808 19.9728C14.2808 19.9728 14.2808 20.1053 14.2367 20.1641H14.2073C13.545 20.1347 12.7208 20.2083 11.8378 20.3849C10.5869 20.6351 9.51254 21.0619 8.92387 21.4887C6.34839 21.4298 4.30273 20.7675 4.30273 19.9728C4.30273 19.1781 6.2748 18.5453 8.79141 18.4717C9.35065 18.9279 10.4839 19.3841 11.8378 19.6343C12.7208 19.8109 13.5597 19.8698 14.2073 19.8256H14.2514C14.2514 19.8256 14.2661 19.9139 14.2661 19.9728H14.2808Z" fill="#173800"/>
<path d="M14.6783 22.1351C14.3103 22.3117 13.9277 22.5324 13.5451 22.7974C12.6326 23.4155 11.9115 24.1072 11.5877 24.637C9.5126 25.4464 7.67299 25.5936 7.40808 24.9607C7.14318 24.3279 8.49713 23.18 10.4692 22.2823C11.0726 22.4589 12.1175 22.4441 13.2802 22.2087C13.7364 22.1057 14.1632 21.9879 14.5458 21.8555C14.5752 21.9438 14.6194 22.0468 14.6636 22.1351H14.6783Z" fill="#173800"/>
<path d="M15.9008 23.843C15.7831 23.9901 15.6654 24.1667 15.5476 24.3286C15.0031 25.1528 14.6499 25.9622 14.5616 26.5215C13.1341 27.9049 11.6624 28.6407 11.2356 28.2139C10.8088 27.7871 11.5152 26.3743 12.8397 24.9615C13.399 24.9026 14.2525 24.5347 15.1356 23.946C15.3122 23.8282 15.474 23.7105 15.6212 23.5928L15.8861 23.8577L15.9008 23.843Z" fill="#173800"/>
<path d="M17.2981 26.1675C17.0921 27.2566 17.0626 28.2426 17.2098 28.846C16.3268 30.8769 15.1347 32.2898 14.4872 32.0249C13.8543 31.76 13.9868 29.9939 14.7668 27.963C15.3113 27.6686 16.0472 26.9181 16.7094 25.932C16.9743 25.5347 17.1951 25.152 17.3717 24.7988C17.46 24.843 17.5483 24.8724 17.6366 24.9018C17.5041 25.2845 17.4011 25.7113 17.3128 26.1675H17.2981Z" fill="#173800"/>
<path d="M21.0072 30.5246C20.9484 33.1001 20.2861 35.1457 19.4914 35.1457C18.6967 35.1457 18.0638 33.1737 17.9902 30.6571C18.4465 30.0978 18.888 28.9646 19.1529 27.6106C19.3295 26.7276 19.3884 25.8888 19.3442 25.2412C19.3884 25.2412 19.4472 25.2412 19.4914 25.2412C19.5502 25.2412 19.6238 25.2412 19.6827 25.2412C19.6533 25.9035 19.7268 26.7276 19.9034 27.6106C20.1536 28.8616 20.5804 29.9359 21.0072 30.5246Z" fill="#173800"/>
<path d="M24.4959 32.0407C23.8778 32.3056 22.7004 30.9516 21.8174 28.9648C21.994 28.3614 21.9793 27.3165 21.7438 26.1539C21.6555 25.6977 21.5231 25.2709 21.3906 24.8882C21.4789 24.8588 21.5819 24.8147 21.6702 24.7705C21.8468 25.1384 22.0676 25.5211 22.3325 25.9037C22.9506 26.8162 23.6423 27.5373 24.1721 27.8611C24.9816 29.9362 25.1287 31.7758 24.4959 32.0407Z" fill="#173800"/>
<path d="M27.7472 28.2141C27.3204 28.6409 25.8928 27.9198 24.48 26.5952C24.4211 26.036 24.0532 25.1824 23.4645 24.2994C23.3468 24.1228 23.2291 23.9609 23.1113 23.8137C23.1996 23.7254 23.2879 23.6371 23.3762 23.5488C23.5381 23.6666 23.7 23.7843 23.8766 23.902C24.7008 24.4466 25.5102 24.7998 26.0694 24.8881C27.4381 26.3156 28.1887 27.7873 27.7619 28.2141H27.7472Z" fill="#173800"/>
<path d="M31.5591 24.961C31.2942 25.5791 29.5135 25.4466 27.4825 24.6813C27.1882 24.1368 26.4376 23.401 25.4516 22.7387C25.0542 22.4738 24.6716 22.2678 24.3184 22.0911C24.3625 22.0028 24.3919 21.9145 24.4361 21.8115C24.8187 21.944 25.2455 22.0617 25.7018 22.15C26.7908 22.3561 27.7768 22.3708 28.395 22.2236C30.4259 23.1213 31.824 24.3134 31.5738 24.9462L31.5591 24.961Z" fill="#173800"/>
<path d="M34.678 19.9719C34.678 20.7666 32.7059 21.4142 30.1893 21.4878C29.63 21.0315 28.4968 20.5753 27.1429 20.3104C26.2599 20.1338 25.4357 20.0749 24.7734 20.1191C24.7734 20.0749 24.7734 20.0161 24.7734 19.9719C24.7734 19.913 24.7734 19.8542 24.7734 19.7806C25.4357 19.81 26.2599 19.7364 27.1429 19.5598C28.4085 19.2949 29.4682 18.8828 30.0568 18.4561C32.6323 18.5149 34.678 19.1772 34.678 19.9719Z" fill="#173800"/>
<path d="M28.4971 17.647C27.9084 17.4704 26.8488 17.4851 25.6861 17.7206C25.2299 17.8089 24.8031 17.9266 24.4205 18.0738C24.391 17.9855 24.3469 17.8825 24.3027 17.7942C24.6707 17.6176 25.0533 17.3968 25.4359 17.1319C26.3484 16.4991 27.0695 15.8221 27.3933 15.2923C29.4684 14.4828 31.2933 14.3357 31.5729 14.9685C31.8231 15.6013 30.4839 16.7493 28.4971 17.647Z" fill="#173800"/>
<path d="M26.1285 14.9679C25.5692 15.0268 24.7156 15.3947 23.8326 15.9834C23.656 16.1012 23.4941 16.2189 23.3469 16.3366C23.2586 16.2483 23.1703 16.16 23.082 16.0717C23.1998 15.9098 23.3175 15.7479 23.4352 15.5713C23.9798 14.7472 24.333 13.9378 24.4213 13.3785C25.8635 12.0098 27.3205 11.2593 27.762 11.7008C28.1888 12.1276 27.4677 13.5404 26.1432 14.9532L26.1285 14.9679Z" fill="#173800"/>
<path d="M24.2155 11.9659C23.671 12.2603 22.9351 13.0108 22.2729 13.9969C22.0227 14.3795 21.8019 14.7769 21.6253 15.1301C21.537 15.0859 21.434 15.0565 21.3457 15.0271C21.4782 14.6444 21.5959 14.2176 21.6842 13.7467C21.8902 12.6724 21.9049 11.6716 21.7578 11.0682C22.6555 9.03726 23.8476 7.62443 24.4804 7.88933C25.0985 8.13952 24.9808 9.92027 24.2008 11.9512L24.2155 11.9659Z" fill="#173800"/>
<path d="M23.0685 19.9717C23.0685 21.9438 21.4643 23.548 19.4922 23.548C17.5202 23.548 15.916 21.9438 15.916 19.9717C15.916 17.9997 17.5202 16.3955 19.4922 16.3955C21.4643 16.3955 23.0685 17.9997 23.0685 19.9717Z" fill="#173800"/>
<path d="M23.0685 19.9717C23.0685 21.9438 21.4643 23.548 19.4922 23.548C17.5202 23.548 15.916 21.9438 15.916 19.9717C15.916 17.9997 17.5202 16.3955 19.4922 16.3955C21.4643 16.3955 23.0685 17.9997 23.0685 19.9717Z" fill="#173800"/>
<path d="M19.5957 39.4722C16.9172 39.4722 14.4006 38.4273 12.5021 36.5288L2.93604 26.9628C-0.978679 23.048 -0.978679 16.6756 2.93604 12.7609L12.296 3.40088C16.2108 -0.513835 22.5832 -0.513835 26.4979 3.40088L36.064 12.9669C39.9787 16.8816 39.9787 23.2541 36.064 27.1688L26.704 36.5288C24.8055 38.4273 22.2889 39.4722 19.6104 39.4722H19.5957ZM19.3896 1.9439C17.1968 1.9439 15.004 2.78277 13.3262 4.44579L3.96622 13.8058C0.625467 17.1465 0.625467 22.5771 3.96622 25.9326L13.5323 35.4986C15.1511 37.1175 17.2998 38.0152 19.5957 38.0152C21.8915 38.0152 24.0402 37.1175 25.659 35.4986L35.0191 26.1386C38.3598 22.7979 38.3598 17.3673 35.0191 14.0118L25.453 4.44579C23.7753 2.76805 21.5825 1.9439 19.3896 1.9439Z" fill="#173800"/>
</svg>
